<svg xmlns="http://www.w3.org/2000/svg" xmlns:svg="http://www.w3.org/2000/svg" id="svg2" width="32" height="32" version="1.1" viewBox="0 0 32 32"><metadata id="metadata7"/><g id="layer1" transform="translate(0,-1020.3622)" style="display:inline"><rect style="opacity:1;fill:#323232;fill-opacity:1;stroke:none;stroke-width:3;stroke-linecap:square;stroke-linejoin:round;stroke-miterlimit:4;stroke-dasharray:none;stroke-opacity:1" id="rect8068" width="30" height="30" x="1" y="1021.362" rx="15" ry="15"/><path style="display:inline;opacity:1;fill:#fff;fill-opacity:.23529412;stroke:none;stroke-width:3;stroke-linecap:square;stroke-linejoin:round;stroke-miterlimit:4;stroke-dasharray:none;stroke-opacity:1" id="rect8068-8" d="M 16,1 C 7.69,1 1,7.69 1,16 1,16.04223 1.00551,16.08286 1.00586,16.125 1.0733751,7.8737388 7.7322279,1.25 16,1.25 24.267772,1.25 30.926625,7.8737388 30.994141,16.125 30.994485,16.082856 31,16.042228 31,16 31,7.69 24.31,1 16,1 Z" transform="translate(0,1020.3622)"/><path style="display:inline;opacity:1;fill:#000;fill-opacity:.23529412;stroke:none;stroke-width:3;stroke-linecap:square;stroke-linejoin:round;stroke-miterlimit:4;stroke-dasharray:none;stroke-opacity:1" id="rect8068-6" d="M 1.0058594,15.875 C 1.0055145,15.917144 1,15.957772 1,16 1,24.31 7.69,31 16,31 24.31,31 31,24.31 31,16 31,15.95777 30.9945,15.91714 30.9941,15.875 30.926625,24.126261 24.267772,30.75 16,30.75 7.7322279,30.75 1.0733751,24.126261 1.0058594,15.875 Z" transform="translate(0,1020.3622)"/></g><g style="display:inline" id="g8288"><rect id="rect8290" width="16.79" height="1.5" x="7.71" y="7.375" style="opacity:1;fill:#fff;fill-opacity:.19935692;stroke:none;stroke-width:2.74873686;stroke-linecap:square;stroke-linejoin:round;stroke-miterlimit:4;stroke-dasharray:none;stroke-opacity:1"/><rect id="rect8292" width="11.753" height="1.5" x="7.71" y="11.375" style="opacity:1;fill:#fff;fill-opacity:.19935692;stroke:none;stroke-width:2.74873686;stroke-linecap:square;stroke-linejoin:round;stroke-miterlimit:4;stroke-dasharray:none;stroke-opacity:1"/><rect id="rect8294" width="13.432" height="1.5" x="7.71" y="15.375" style="opacity:1;fill:#fff;fill-opacity:.19935692;stroke:none;stroke-width:2.74873686;stroke-linecap:square;stroke-linejoin:round;stroke-miterlimit:4;stroke-dasharray:none;stroke-opacity:1"/><rect id="rect8296" width="15.111" height="1.5" x="7.71" y="19.375" style="opacity:1;fill:#fff;fill-opacity:.19935692;stroke:none;stroke-width:2.74873686;stroke-linecap:square;stroke-linejoin:round;stroke-miterlimit:4;stroke-dasharray:none;stroke-opacity:1"/><rect id="rect8298" width="6.716" height="1.5" x="7.71" y="23.375" style="opacity:1;fill:#fff;fill-opacity:.19935692;stroke:none;stroke-width:2.74873686;stroke-linecap:square;stroke-linejoin:round;stroke-miterlimit:4;stroke-dasharray:none;stroke-opacity:1"/></g><g id="layer2" style="display:inline"><rect style="opacity:1;fill:#fff;fill-opacity:1;stroke:none;stroke-width:2.74873686;stroke-linecap:square;stroke-linejoin:round;stroke-miterlimit:4;stroke-dasharray:none;stroke-opacity:1" id="rect8070" width="16.79" height="1.5" x="7.5" y="7.125"/><rect style="opacity:1;fill:#fff;fill-opacity:1;stroke:none;stroke-width:2.74873686;stroke-linecap:square;stroke-linejoin:round;stroke-miterlimit:4;stroke-dasharray:none;stroke-opacity:1" id="rect8070-6" width="11.753" height="1.5" x="7.5" y="11.125"/><rect style="opacity:1;fill:#fff;fill-opacity:1;stroke:none;stroke-width:2.74873686;stroke-linecap:square;stroke-linejoin:round;stroke-miterlimit:4;stroke-dasharray:none;stroke-opacity:1" id="rect8070-6-8" width="13.432" height="1.5" x="7.5" y="15.125"/><rect style="opacity:1;fill:#fff;fill-opacity:1;stroke:none;stroke-width:2.74873686;stroke-linecap:square;stroke-linejoin:round;stroke-miterlimit:4;stroke-dasharray:none;stroke-opacity:1" id="rect8070-6-8-2" width="15.111" height="1.5" x="7.5" y="19.125"/><rect style="opacity:1;fill:#fff;fill-opacity:1;stroke:none;stroke-width:2.74873686;stroke-linecap:square;stroke-linejoin:round;stroke-miterlimit:4;stroke-dasharray:none;stroke-opacity:1" id="rect8070-6-8-2-8" width="6.716" height="1.5" x="7.5" y="23.125"/></g></svg>