<svg xmlns="http://www.w3.org/2000/svg" xmlns:svg="http://www.w3.org/2000/svg" id="svg2" width="32" height="32" version="1.1" viewBox="0 0 32 32"><metadata id="metadata7"/><g id="layer1" transform="translate(0,-1020.3622)" style="display:inline"><rect style="opacity:1;fill:#323232;fill-opacity:1;stroke:none;stroke-width:3;stroke-linecap:square;stroke-linejoin:round;stroke-miterlimit:4;stroke-dasharray:none;stroke-opacity:1" id="rect8068" width="28" height="28" x="2" y="1022.362" rx="4" ry="4"/><path style="opacity:1;fill:#fff;fill-opacity:.23472667;stroke:none;stroke-width:3;stroke-linecap:square;stroke-linejoin:round;stroke-miterlimit:4;stroke-dasharray:none;stroke-opacity:1" id="rect8068-5" d="M 6,2 C 3.784,2 2,3.784 2,6 l 0,0.25 c 0,-2.216 1.784,-4 4,-4 l 20,0 c 2.216,0 4,1.784 4,4 L 30,6 C 30,3.784 28.216,2 26,2 L 6,2 Z" transform="translate(0,1020.3622)"/><path style="opacity:1;fill:#000;fill-opacity:.23472667;stroke:none;stroke-width:3;stroke-linecap:square;stroke-linejoin:round;stroke-miterlimit:4;stroke-dasharray:none;stroke-opacity:1" id="rect8068-5-1" d="m 26,1050.3622 c 2.216,0 4,-1.784 4,-4 l 0,-0.25 c 0,2.216 -1.784,4 -4,4 l -19.9999999,0 c -2.216,0 -4.0000001,-1.784 -4.0000001,-4 l 0,0.25 c 0,2.216 1.7840001,4 4.0000001,4 l 19.9999999,0 z"/></g><g style="display:inline" id="g8288"><rect id="rect8290" width="20" height="1.5" x="6.25" y="6.75" style="opacity:1;fill:#fff;fill-opacity:.19935692;stroke:none;stroke-width:3;stroke-linecap:square;stroke-linejoin:round;stroke-miterlimit:4;stroke-dasharray:none;stroke-opacity:1"/><rect id="rect8292" width="14" height="1.5" x="6.25" y="10.75" style="opacity:1;fill:#fff;fill-opacity:.19935692;stroke:none;stroke-width:3;stroke-linecap:square;stroke-linejoin:round;stroke-miterlimit:4;stroke-dasharray:none;stroke-opacity:1"/><rect id="rect8294" width="16" height="1.5" x="6.25" y="14.75" style="opacity:1;fill:#fff;fill-opacity:.19935692;stroke:none;stroke-width:3;stroke-linecap:square;stroke-linejoin:round;stroke-miterlimit:4;stroke-dasharray:none;stroke-opacity:1"/><rect id="rect8296" width="18" height="1.5" x="6.25" y="18.75" style="opacity:1;fill:#fff;fill-opacity:.19935692;stroke:none;stroke-width:3;stroke-linecap:square;stroke-linejoin:round;stroke-miterlimit:4;stroke-dasharray:none;stroke-opacity:1"/><rect id="rect8298" width="8" height="1.5" x="6.25" y="22.75" style="opacity:1;fill:#fff;fill-opacity:.19935692;stroke:none;stroke-width:3;stroke-linecap:square;stroke-linejoin:round;stroke-miterlimit:4;stroke-dasharray:none;stroke-opacity:1"/></g><g id="layer2" style="display:inline"><rect style="opacity:1;fill:#fff;fill-opacity:1;stroke:none;stroke-width:3;stroke-linecap:square;stroke-linejoin:round;stroke-miterlimit:4;stroke-dasharray:none;stroke-opacity:1" id="rect8070" width="20" height="1.5" x="6" y="6.5"/><rect style="opacity:1;fill:#fff;fill-opacity:1;stroke:none;stroke-width:3;stroke-linecap:square;stroke-linejoin:round;stroke-miterlimit:4;stroke-dasharray:none;stroke-opacity:1" id="rect8070-6" width="14" height="1.5" x="6" y="10.5"/><rect style="opacity:1;fill:#fff;fill-opacity:1;stroke:none;stroke-width:3;stroke-linecap:square;stroke-linejoin:round;stroke-miterlimit:4;stroke-dasharray:none;stroke-opacity:1" id="rect8070-6-8" width="16" height="1.5" x="6" y="14.5"/><rect style="opacity:1;fill:#fff;fill-opacity:1;stroke:none;stroke-width:3;stroke-linecap:square;stroke-linejoin:round;stroke-miterlimit:4;stroke-dasharray:none;stroke-opacity:1" id="rect8070-6-8-2" width="18" height="1.5" x="6" y="18.5"/><rect style="opacity:1;fill:#fff;fill-opacity:1;stroke:none;stroke-width:3;stroke-linecap:square;stroke-linejoin:round;stroke-miterlimit:4;stroke-dasharray:none;stroke-opacity:1" id="rect8070-6-8-2-8" width="8" height="1.5" x="6" y="22.5"/></g></svg>